<?xml version="1.0" encoding="UTF-8" standalone="no" ?>
<!DOCTYPE svg PUBLIC "-//W3C//DTD SVG 1.1//EN" "http://www.w3.org/Graphics/SVG/1.1/DTD/svg11.dtd">
<svg xmlns="http://www.w3.org/2000/svg" xmlns:xlink="http://www.w3.org/1999/xlink" version="1.1" width="40" height="40" viewBox="0 0 40 40" xml:space="preserve">
<desc>Created with Fabric.js 4.6.0</desc>
<defs>
</defs>
<g transform="matrix(0.02 0 0 0.02 20 20)" id="NWerLwH7COjs64gGVST5-"  >
<g style="" vector-effect="non-scaling-stroke"   >
		<g transform="matrix(1 0 0 1 0 0.5)" id="RncvXMGXC-tlZ9mOaV0KO"  >
<path style="stroke: none; stroke-width: 1; stroke-dasharray: none; stroke-linecap: butt; stroke-dashoffset: 0; stroke-linejoin: miter; stroke-miterlimit: 4; fill: rgb(116,170,156); fill-rule: nonzero; opacity: 1;" vector-effect="non-scaling-stroke"  transform=" translate(-1203, -1203.5)" d="M 1 578.4 C 1 259.5 259.5 1 578.4 1 L 1827.5 1 C 2146.5 1 2405 259.5 2405 578.4 L 2405 2406 L 578.4 2406 C 259.5 2406 1 2147.5 1 1828.6 L 1 578.4 z" stroke-linecap="round" />
</g>
		<g transform="matrix(1 0 0 1 -1.01 0.05)" id="ELzTCjWewF38QKAfnANBF"  >
<path style="stroke: none; stroke-width: 1; stroke-dasharray: none; stroke-linecap: butt; stroke-dashoffset: 0; stroke-linejoin: miter; stroke-miterlimit: 4; fill: rgb(255,255,255); fill-rule: nonzero; opacity: 1;" vector-effect="non-scaling-stroke"  transform=" translate(-1201.99, -1203.05)" d="M 1107.3 299.1 C 909.3 299.1 733.4 426.40000000000003 672.0999999999999 614.4000000000001 C 544.8 640.6 434.9 720.2 370.5 833 C 271.2 1004.4 293.9 1219.9 426.9 1366.8 C 385.79999999999995 1489.8999999999999 399.9 1624.5 465.5 1736 C 564.2 1908 762.8 1996.2 957.1 1955.2 C 1043.2 2052.2 1166.9 2107.5 1296.7 2107 C 1494.7 2107 1670.6 1979.7 1732 1791.7 C 1859.5 1765.4 1969.2 1685.8 2033 1573.2 C 2132.9 1401.8 2110.2 1186.3000000000002 1977.2 1039.3000000000002 L 1977.2 1038.7000000000003 C 2018.3 915.6000000000003 2004.2 780.9000000000003 1938.6000000000001 668.9000000000003 C 1839.9 497.50000000000034 1641.3000000000002 409.3000000000003 1447.6000000000001 450.3000000000003 C 1361.0000000000002 353.5000000000003 1237.1000000000001 298.5000000000003 1107.3000000000002 299.1000000000003 z M 1107.3 416.6 L 1106.7 417.20000000000005 C 1186.4 417.20000000000005 1263 444.70000000000005 1324.3 495.6 C 1321.8 496.8 1316.8999999999999 499.90000000000003 1313.3 501.70000000000005 L 952.8 709.3 C 934.4 719.6999999999999 923.4 739.3 923.4 760.6999999999999 L 923.4 1248 L 768.3 1158.6 L 768.3 755.8 C 768.1999999999999 568.6999999999999 919.9 416.9 1107.3 416.59999999999997 z M 1541.5 558.5 C 1663.1 558.3 1775.5 623 1836.2 728.3 C 1875.4 796.9 1890.1000000000001 877.0999999999999 1876.6000000000001 954.8 C 1874.1000000000001 953 1869.3000000000002 950.5 1866.2 948.6999999999999 L 1505.8000000000002 740.5 C 1487.4 730.1 1464.8000000000002 730.1 1446.4 740.5 L 1024 984.2 L 1024 805.4 L 1372.7 604 C 1424 574.3 1482.2 558.6 1541.5 558.5 z M 650 743.5 L 650 1171.4 C 650 1192.8000000000002 661 1211.8000000000002 679.4 1222.8000000000002 L 1101.1 1465.8000000000002 L 945.3999999999999 1555.8000000000002 L 597.2 1355 C 435.20000000000005 1261.2 379.80000000000007 1054.1 473.40000000000003 892.2 C 513.1 823.6 575.5 771 650 743.5 z M 1457.9 849.5 L 1806.7 1050.3 C 1969.2 1144 2024.3 1350.9 1930.5 1513.1 L 1931.1 1513.6999999999998 C 1891.3 1582.2999999999997 1828.6999999999998 1634.8999999999999 1754.6 1661.8999999999999 L 1754.6 1233.8999999999999 C 1754.6 1212.4999999999998 1743.6 1192.8999999999999 1725.1999999999998 1182.4999999999998 L 1302.8999999999999 938.7999999999997 L 1457.8999999999999 849.4999999999998 z M 1201.7 997 L 1379.5 1099.8 L 1379.5 1304.8999999999999 L 1201.7 1407.6999999999998 L 1023.9000000000001 1304.8999999999999 L 1023.9000000000001 1099.8 L 1201.7 997 z M 1481.2 1158.6 L 1636.3 1248 L 1636.3 1650.2 C 1636.3 1837.5 1484.3 1989.4 1297.3 1989.4 L 1297.3 1988.8000000000002 C 1218.2 1988.8000000000002 1141 1961.2000000000003 1080.3 1910.4 C 1082.8 1909.2 1088.3 1906.1000000000001 1091.3 1904.3000000000002 L 1451.6999999999998 1696.8000000000002 C 1470.1 1686.4 1481.6999999999998 1666.8000000000002 1481.1 1645.4 L 1481.1999999999998 1158.6000000000001 z M 1380 1421.9 L 1380 1600.7 L 1031.2 1801.5 C 868.7 1894.6 661.6 1839.5 567.8000000000001 1677.8 L 568.4000000000001 1677.8 C 528.6000000000001 1609.8 514.4000000000001 1529 527.9000000000001 1451.3 C 530.4000000000001 1453.1 535.3000000000001 1455.6 538.3000000000001 1457.3999999999999 L 898.7 1665.6 C 917.1 1676 939.7 1676 958.1 1665.6 L 1380 1421.8999999999999 z" stroke-linecap="round" />
</g>
</g>
</g>
</svg>